<?xml version="1.0" encoding="UTF-8" ?>
<!DOCTYPE svg PUBLIC "-//W3C//DTD SVG 1.1//EN" "http://www.w3.org/Graphics/SVG/1.1/DTD/svg11.dtd">
<svg width="353pt" height="84pt" viewBox="0 0 353 84" version="1.1" xmlns="http://www.w3.org/2000/svg">
<g id="#fdfdfdff">
<path fill="#fdfdfd" opacity="1.00" d=" M 0.00 0.00 L 353.00 0.00 L 353.00 84.00 L 0.00 84.00 L 0.00 0.00 M 60.99 17.00 C 61.01 32.34 61.01 47.67 60.99 63.01 C 67.66 62.98 74.33 62.98 81.00 63.01 C 81.00 62.26 81.00 60.76 81.00 60.01 C 75.33 60.02 69.67 59.98 64.01 59.99 C 64.00 45.66 64.01 31.33 63.99 17.00 C 63.24 17.00 61.74 17.00 60.99 17.00 M 131.42 17.48 C 119.80 19.17 113.03 32.77 115.37 43.61 C 115.86 51.10 121.49 56.82 127.41 60.70 C 132.63 64.34 139.48 63.20 145.35 62.32 C 156.57 57.71 163.97 43.54 159.20 31.95 C 157.15 27.33 154.72 22.45 150.29 19.67 C 144.84 15.91 137.62 16.98 131.42 17.48 M 208.93 18.90 C 197.18 24.59 193.98 40.27 199.76 51.25 C 204.59 58.44 212.70 65.00 221.99 63.00 C 227.01 63.41 230.84 60.13 234.80 57.71 C 234.86 54.03 234.99 46.68 235.05 43.00 C 234.28 43.00 232.74 43.00 231.97 43.00 C 232.05 47.94 232.12 52.88 232.21 57.82 C 225.99 59.80 219.30 60.72 212.84 59.25 C 206.64 57.95 203.30 51.66 200.52 46.49 C 196.11 37.62 202.25 27.69 208.49 21.56 C 216.91 15.92 227.40 20.27 235.86 23.84 C 229.93 15.22 217.75 15.39 208.93 18.90 M 286.42 17.42 C 273.96 19.53 267.40 34.65 270.82 46.09 C 273.87 55.58 283.06 65.18 293.98 62.99 C 299.96 63.50 305.05 60.00 309.04 56.02 C 318.21 46.02 316.81 28.24 305.82 20.16 C 300.42 15.81 292.81 16.96 286.42 17.42 Z" />
<path fill="#fdfdfd" opacity="1.00" d=" M 131.43 19.54 C 143.84 14.97 159.05 25.67 157.86 39.03 C 159.88 51.79 146.12 62.97 134.03 59.90 C 127.12 59.76 122.47 53.96 119.46 48.34 C 116.79 43.39 115.87 36.95 118.91 31.97 C 121.96 26.95 124.93 20.42 131.43 19.54 Z" />
<path fill="#fdfdfd" opacity="1.00" d=" M 286.43 19.54 C 292.83 18.48 300.91 17.94 305.67 23.32 C 315.23 30.49 316.01 47.08 306.73 54.74 C 301.28 61.02 291.68 61.18 284.27 58.79 C 274.36 54.11 268.28 40.29 274.46 30.46 C 277.43 25.95 280.52 20.32 286.43 19.54 Z" />
</g>
<g id="#244b52ff">
<path fill="#244b52" opacity="1.00" d=" M 60.99 17.00 C 61.74 17.00 63.24 17.00 63.99 17.00 C 64.01 31.33 64.00 45.66 64.01 59.99 C 69.67 59.98 75.33 60.02 81.00 60.01 C 81.00 60.76 81.00 62.26 81.00 63.01 C 74.33 62.98 67.66 62.98 60.99 63.01 C 61.01 47.67 61.01 32.34 60.99 17.00 Z" />
<path fill="#244b52" opacity="1.00" d=" M 131.42 17.48 C 137.62 16.98 144.84 15.91 150.29 19.67 C 154.72 22.45 157.15 27.33 159.20 31.95 C 163.97 43.54 156.57 57.71 145.35 62.32 C 139.48 63.20 132.63 64.34 127.41 60.70 C 121.49 56.82 115.86 51.10 115.37 43.61 C 113.03 32.77 119.80 19.17 131.42 17.48 M 131.43 19.54 C 124.93 20.42 121.96 26.95 118.91 31.97 C 115.87 36.95 116.79 43.39 119.46 48.34 C 122.47 53.96 127.12 59.76 134.03 59.90 C 146.12 62.97 159.88 51.79 157.86 39.03 C 159.05 25.67 143.84 14.97 131.43 19.54 Z" />
<path fill="#244b52" opacity="1.00" d=" M 208.93 18.90 C 217.75 15.39 229.93 15.22 235.86 23.84 C 227.40 20.27 216.91 15.92 208.49 21.56 C 202.25 27.69 196.11 37.62 200.52 46.49 C 203.30 51.66 206.64 57.95 212.84 59.25 C 219.30 60.72 225.99 59.80 232.21 57.82 C 232.12 52.88 232.05 47.94 231.97 43.00 C 232.74 43.00 234.28 43.00 235.05 43.00 C 234.99 46.68 234.86 54.03 234.80 57.71 C 230.84 60.13 227.01 63.41 221.99 63.00 C 212.70 65.00 204.59 58.44 199.76 51.25 C 193.98 40.27 197.18 24.59 208.93 18.90 Z" />
<path fill="#244b52" opacity="1.00" d=" M 286.42 17.42 C 292.81 16.96 300.42 15.81 305.82 20.16 C 316.81 28.24 318.21 46.02 309.04 56.02 C 305.05 60.00 299.96 63.50 293.98 62.99 C 283.06 65.18 273.87 55.58 270.82 46.09 C 267.40 34.65 273.96 19.53 286.42 17.42 M 286.43 19.54 C 280.52 20.32 277.43 25.95 274.46 30.46 C 268.28 40.29 274.36 54.11 284.27 58.79 C 291.68 61.18 301.28 61.02 306.73 54.74 C 316.01 47.08 315.23 30.49 305.67 23.32 C 300.91 17.94 292.83 18.48 286.43 19.54 Z" />
</g>
</svg>
